<?xml version="1.0" encoding="UTF-8"?>
<svg xmlns="http://www.w3.org/2000/svg"
     xmlns:xlink="http://www.w3.org/1999/xlink"
     version="1.2"
     width="105.82mm" height="105.82mm" viewBox="0 0 105.82 105.82"
     stroke="none"
     fill="#000000"
     stroke-width="0.3"
     font-size="3.88"
>
<defs>
  <marker id="arrow" markerWidth="15" markerHeight="7" refX="5" refY="3.5" orient="auto" markerUnits="strokeWidth">
    <path d="M0,0 L15,3.5 L0,7 z" stroke="context-stroke" fill="context-stroke"/>
  </marker>
</defs>
<g stroke-width="0.75" fill="#000000" fill-opacity="0.000" stroke="#000000" id="img-99dbeade-1">
  <g transform="translate(60.87,10.4)">
    <path fill="none" d="M-7.18,-1.43 L7.18,1.43 " class="primitive"/>
  </g>
  <g transform="translate(76.9,47.94)">
    <path fill="none" d="M-6.77,-34.03 L6.77,34.03 " class="primitive"/>
  </g>
  <g transform="translate(40.65,24.24)">
    <path fill="none" d="M27.5,-11.39 L-27.5,11.39 " class="primitive"/>
  </g>
  <g transform="translate(77.05,57.09)">
    <path fill="none" d="M6.78,-34.06 L-6.78,34.06 " class="primitive"/>
  </g>
  <g transform="translate(93.65,52.7)">
    <path fill="none" d="M0,-15.07 L0,15.07 " class="primitive"/>
  </g>
  <g transform="translate(73.5,66.19)">
    <path fill="none" d="M19.27,-28.83 L-19.27,28.83 " class="primitive"/>
  </g>
  <g transform="translate(65.03,64.65)">
    <path fill="none" d="M27.5,-27.5 L-27.5,27.5 " class="primitive"/>
  </g>
  <g transform="translate(57.8,59.99)">
    <path fill="none" d="M34.53,-23.07 L-34.53,23.07 " class="primitive"/>
  </g>
  <g transform="translate(51.57,44.41)">
    <path fill="none" d="M40.52,-8.06 L-40.52,8.06 " class="primitive"/>
  </g>
  <g transform="translate(95.25,61.71)">
    <path fill="none" d="M1.21,-6.1 L-1.21,6.1 " class="primitive"/>
  </g>
  <g transform="translate(73.43,83.29)">
    <path fill="none" d="M18.54,-12.39 L-18.54,12.39 " class="primitive"/>
  </g>
  <g transform="translate(60.04,88.87)">
    <path fill="none" d="M21.93,-4.36 L-21.93,4.36 " class="primitive"/>
  </g>
  <g transform="translate(59.95,47.96)">
    <path fill="none" d="M22.94,34.33 L-22.94,-34.33 " class="primitive"/>
  </g>
  <g transform="translate(39.19,73.2)">
    <path fill="none" d="M28.48,19.03 L-28.48,-19.03 " class="primitive"/>
  </g>
  <g transform="translate(45.27,56.96)">
    <path fill="none" d="M23.1,34.57 L-23.1,-34.57 " class="primitive"/>
  </g>
  <g transform="translate(32.21,83.17)">
    <path fill="none" d="M18.72,12.51 L-18.72,-12.51 " class="primitive"/>
  </g>
</g>
<g stroke-width="0.75" stroke="#000000" id="img-99dbeade-2">
</g>
<g font-size="4" stroke="#000000" stroke-opacity="0.000" fill="#000000" id="img-99dbeade-3">
</g>
<g stroke="#000000" id="img-99dbeade-4">
  <g transform="translate(52.91,8.82)" stroke-width="0" fill="#3261AB">
    <circle cx="0" cy="0" r="0.76" class="primitive"/>
  </g>
  <g transform="translate(69.78,12.17)" stroke-width="0" fill="#C7243A">
    <circle cx="0" cy="0" r="1.7" class="primitive"/>
  </g>
  <g transform="translate(84.09,21.73)" stroke-width="0" fill="#C7243A">
    <circle cx="0" cy="0" r="1.27" class="primitive"/>
  </g>
  <g transform="translate(93.65,36.04)" stroke-width="0" fill="#3261AB">
    <circle cx="0" cy="0" r="1.52" class="primitive"/>
  </g>
  <g transform="translate(97,52.91)" stroke-width="0" fill="#C7243A">
    <circle cx="0" cy="0" r="2.65" class="primitive"/>
  </g>
  <g transform="translate(93.65,69.78)" stroke-width="0" fill="#3261AB">
    <circle cx="0" cy="0" r="1.93" class="primitive"/>
  </g>
  <g transform="translate(84.09,84.09)" stroke-width="0" fill="#3261AB">
    <circle cx="0" cy="0" r="2.08" class="primitive"/>
  </g>
  <g transform="translate(69.78,93.65)" stroke-width="0.75" fill="#3261AB">
    <circle cx="0" cy="0" r="2.44" class="primitive"/>
  </g>
  <g transform="translate(52.91,97)" stroke-width="0" fill="#C7243A">
    <circle cx="0" cy="0" r="2.28" class="primitive"/>
  </g>
  <g transform="translate(36.04,93.65)" stroke-width="0" fill="#C7243A">
    <circle cx="0" cy="0" r="2.03" class="primitive"/>
  </g>
  <g transform="translate(21.73,84.09)" stroke-width="0" fill="#C7243A">
    <circle cx="0" cy="0" r="1.78" class="primitive"/>
  </g>
  <g transform="translate(12.17,69.78)" stroke-width="0" fill="#3261AB">
    <circle cx="0" cy="0" r="1.52" class="primitive"/>
  </g>
  <g transform="translate(8.82,52.91)" stroke-width="0" fill="#C7243A">
    <circle cx="0" cy="0" r="2.18" class="primitive"/>
  </g>
  <g transform="translate(12.17,36.04)" stroke-width="0" fill="#C7243A">
    <circle cx="0" cy="0" r="1.02" class="primitive"/>
  </g>
  <g transform="translate(21.73,21.73)" stroke-width="0" fill="#C7243A">
    <circle cx="0" cy="0" r="0.76" class="primitive"/>
  </g>
  <g transform="translate(36.04,12.17)" stroke-width="0" fill="#3261AB">
    <circle cx="0" cy="0" r="1.68" class="primitive"/>
  </g>
</g>
<g font-size="4" stroke="#000000" stroke-opacity="0.000" fill="#FFFFFF" id="img-99dbeade-5">
  <g transform="translate(52.91,8.82)">
    <g class="primitive">
      <text text-anchor="middle" dy="0.35em">1</text>
    </g>
  </g>
  <g transform="translate(69.78,12.17)">
    <g class="primitive">
      <text text-anchor="middle" dy="0.35em">2</text>
    </g>
  </g>
  <g transform="translate(84.09,21.73)">
    <g class="primitive">
      <text text-anchor="middle" dy="0.35em">3</text>
    </g>
  </g>
  <g transform="translate(93.65,36.04)">
    <g class="primitive">
      <text text-anchor="middle" dy="0.35em">4</text>
    </g>
  </g>
  <g transform="translate(97,52.91)">
    <g class="primitive">
      <text text-anchor="middle" dy="0.35em">5</text>
    </g>
  </g>
  <g transform="translate(93.65,69.78)">
    <g class="primitive">
      <text text-anchor="middle" dy="0.35em">6</text>
    </g>
  </g>
  <g transform="translate(84.09,84.09)">
    <g class="primitive">
      <text text-anchor="middle" dy="0.35em">7</text>
    </g>
  </g>
  <g transform="translate(69.78,93.65)">
    <g class="primitive">
      <text text-anchor="middle" dy="0.35em">8</text>
    </g>
  </g>
  <g transform="translate(52.91,97)">
    <g class="primitive">
      <text text-anchor="middle" dy="0.35em">9</text>
    </g>
  </g>
  <g transform="translate(36.04,93.65)">
    <g class="primitive">
      <text text-anchor="middle" dy="0.35em">10</text>
    </g>
  </g>
  <g transform="translate(21.73,84.09)">
    <g class="primitive">
      <text text-anchor="middle" dy="0.35em">11</text>
    </g>
  </g>
  <g transform="translate(12.17,69.78)">
    <g class="primitive">
      <text text-anchor="middle" dy="0.35em">12</text>
    </g>
  </g>
  <g transform="translate(8.82,52.91)">
    <g class="primitive">
      <text text-anchor="middle" dy="0.35em">13</text>
    </g>
  </g>
  <g transform="translate(12.17,36.04)">
    <g class="primitive">
      <text text-anchor="middle" dy="0.35em">14</text>
    </g>
  </g>
  <g transform="translate(21.73,21.73)">
    <g class="primitive">
      <text text-anchor="middle" dy="0.35em">15</text>
    </g>
  </g>
  <g transform="translate(36.04,12.17)">
    <g class="primitive">
      <text text-anchor="middle" dy="0.35em">16</text>
    </g>
  </g>
</g>
</svg>
